<svg width="50" height="50" viewBox="0 0 50 50" fill="none" xmlns="http://www.w3.org/2000/svg">
<g clip-path="url(#clip0_887_1666)">
<path fill-rule="evenodd" clip-rule="evenodd" d="M36.0997 32.1269C35.6843 32.7085 34.9642 32.9993 33.9394 32.9993H30.7265V19.2893C30.7265 18.1814 30.5326 17.212 30.1449 16.3811C29.7571 15.5225 29.2032 14.8301 28.4831 14.3038H28.5246C27.8045 13.833 27.0567 13.4452 26.2811 13.1406C25.5677 12.8603 24.8777 12.7089 24.2111 12.6865L24.2177 8.36284H33.9394C34.9642 8.36284 35.6843 8.65366 36.0997 9.2353C36.5152 9.81694 36.7229 10.454 36.7229 11.1464V30.1742C36.7229 30.8943 36.5152 31.5452 36.0997 32.1269ZM24.2044 17.0588L24.2111 12.6865C24.1531 12.6845 24.0953 12.6836 24.0377 12.6836H19.2738V6.65948C19.2738 5.66239 19.5231 4.99766 20.0216 4.66529C20.5479 4.33293 21.1711 4.16675 21.8912 4.16675H34.978C35.6981 4.16675 36.4459 4.31908 37.2215 4.62375C37.997 4.92842 38.7448 5.31617 39.4649 5.78702H39.4234C40.1435 6.31326 40.6974 7.00569 41.0852 7.8643C41.4729 8.69521 41.6668 9.6646 41.6668 10.7725V30.5066C41.6668 32.7501 40.919 34.4257 39.4234 35.5336C38.7032 36.0598 37.9554 36.4753 37.1799 36.78C36.4321 37.0569 35.6981 37.1954 34.978 37.1954H30.7265V32.9993H28.2892C27.0982 32.9993 26.5027 33.6917 26.5027 35.0766C26.5027 35.7136 26.6274 36.226 26.8766 36.6138C27.1536 37.0015 27.5275 37.1954 27.9984 37.1954H30.7265V39.0234C30.7265 41.2669 29.9787 42.9425 28.4831 44.0504C27.7629 44.5767 27.0151 44.9921 26.2396 45.2968C25.4918 45.5738 24.7578 45.7122 24.0377 45.7122H17.058C16.5872 45.7122 16.2133 45.5184 15.9363 45.1306C15.687 44.7428 15.5624 44.2305 15.5624 43.5934C15.5624 42.2086 16.1579 41.5162 17.3489 41.5162H22.9991C24.0238 41.5162 24.744 41.2253 25.1594 40.6437C25.5749 40.0621 25.7826 39.4112 25.7826 38.6911V19.6632C25.7826 18.9708 25.5749 18.3338 25.1594 17.7521C24.9322 17.434 24.6139 17.2029 24.2044 17.0588ZM24.2044 17.0588L24.1762 35.4505C24.1762 36.0598 23.9408 36.5445 23.4699 36.9046C22.9991 37.2647 22.4174 37.4447 21.725 37.4447C20.0909 37.4447 19.2738 36.78 19.2738 35.4505V16.8797H22.9991C23.4634 16.8797 23.8651 16.9394 24.2044 17.0588ZM19.2738 16.8797H13.2774L13.2359 43.9673C13.2359 44.5767 13.0004 45.0614 12.5296 45.4214C12.0587 45.7815 11.4771 45.9615 10.7847 45.9615C9.15056 45.9615 8.3335 45.2968 8.3335 43.9673V15.1763C8.3335 14.1792 8.58277 13.5145 9.08131 13.1821C9.60756 12.8498 10.2307 12.6836 10.9509 12.6836H19.2738V16.8797Z" fill="#155A03"/>
</g>
<defs>
<clipPath id="clip0_887_1666">
<rect width="50" height="50" fill="white"/>
</clipPath>
</defs>
</svg>
